<mxfile host="app.diagrams.net" modified="2024-04-30T09:23:16.273Z" agent="Mozilla/5.0 (Windows NT 10.0; Win64; x64) AppleWebKit/537.36 (KHTML, like Gecko) Chrome/124.0.0.0 Safari/537.36" etag="aFUOFDRwXNGv77Y9B8a9" version="24.0.7" type="device">
  <diagram name="Page-1" id="c4acf3e9-155e-7222-9cf6-157b1a14988f">
    <mxGraphModel dx="1147" dy="624" grid="1" gridSize="10" guides="1" tooltips="1" connect="1" arrows="1" fold="1" page="1" pageScale="1" pageWidth="850" pageHeight="1100" background="none" math="0" shadow="0">
      <root>
        <mxCell id="0" />
        <mxCell id="1" parent="0" />
        <mxCell id="5d2195bd80daf111-18" value="&lt;p style=&quot;margin:0px;margin-top:4px;text-align:center;&quot;&gt;&lt;i&gt;&amp;lt;&amp;lt;Interface&amp;gt;&amp;gt;&lt;/i&gt;&lt;br&gt;&lt;b&gt;Parking&lt;/b&gt;&lt;/p&gt;&lt;p style=&quot;margin:0px;margin-left:4px;&quot;&gt;&lt;br&gt;&lt;/p&gt;&lt;hr size=&quot;1&quot;&gt;&lt;p style=&quot;margin:0px;margin-left:4px;&quot;&gt;+ park(Vehicle): Vehicle&lt;br&gt;+ replace(Vehicle):&amp;nbsp;&lt;span style=&quot;background-color: initial;&quot;&gt;Vehicle&lt;/span&gt;&lt;/p&gt;&lt;p style=&quot;margin:0px;margin-left:4px;&quot;&gt;&lt;span style=&quot;background-color: initial;&quot;&gt;+ remove(&lt;/span&gt;&lt;span style=&quot;background-color: initial;&quot;&gt;Vehicle&lt;/span&gt;&lt;span style=&quot;background-color: initial;&quot;&gt;):&amp;nbsp;&lt;/span&gt;&lt;span style=&quot;background-color: initial;&quot;&gt;Vehicle&lt;/span&gt;&lt;/p&gt;&lt;p style=&quot;margin:0px;margin-left:4px;&quot;&gt;&lt;span style=&quot;background-color: initial;&quot;&gt;+ findById(int):&amp;nbsp;&lt;/span&gt;&lt;span style=&quot;background-color: initial;&quot;&gt;Vehicle&lt;/span&gt;&lt;/p&gt;&lt;p style=&quot;margin:0px;margin-left:4px;&quot;&gt;&lt;span style=&quot;background-color: initial;&quot;&gt;+ findAll(): List&amp;lt;&lt;/span&gt;&lt;span style=&quot;background-color: initial;&quot;&gt;Vehicle&lt;/span&gt;&lt;span style=&quot;background-color: initial;&quot;&gt;&amp;gt;&lt;/span&gt;&lt;/p&gt;&lt;p style=&quot;margin:0px;margin-left:4px;&quot;&gt;&lt;span style=&quot;background-color: initial;&quot;&gt;&lt;br&gt;&lt;/span&gt;&lt;/p&gt;&lt;p style=&quot;margin:0px;margin-left:4px;&quot;&gt;&lt;span style=&quot;background-color: initial;&quot;&gt;- checkSize(Vehicle)&lt;/span&gt;&lt;/p&gt;" style="verticalAlign=top;align=left;overflow=fill;fontSize=12;fontFamily=Helvetica;html=1;rounded=0;shadow=0;comic=0;labelBackgroundColor=none;strokeWidth=1" parent="1" vertex="1">
          <mxGeometry x="125" y="140" width="160" height="170" as="geometry" />
        </mxCell>
        <mxCell id="UMF_ZQlPhy-w_M4FemHB-1" value="«interface»&lt;br&gt;&lt;b&gt;Vehicle&lt;/b&gt;" style="html=1;whiteSpace=wrap;" vertex="1" parent="1">
          <mxGeometry x="540" y="160" width="110" height="50" as="geometry" />
        </mxCell>
        <mxCell id="UMF_ZQlPhy-w_M4FemHB-2" value="&lt;div&gt;&lt;span style=&quot;font-weight: 400;&quot;&gt;«abstract»&lt;/span&gt;&lt;br&gt;&lt;/div&gt;AbstractVehicle" style="swimlane;fontStyle=1;align=center;verticalAlign=top;childLayout=stackLayout;horizontal=1;startSize=40;horizontalStack=0;resizeParent=1;resizeParentMax=0;resizeLast=0;collapsible=1;marginBottom=0;whiteSpace=wrap;html=1;" vertex="1" parent="1">
          <mxGeometry x="515" y="240" width="160" height="118" as="geometry">
            <mxRectangle x="510" y="240" width="120" height="30" as="alternateBounds" />
          </mxGeometry>
        </mxCell>
        <mxCell id="UMF_ZQlPhy-w_M4FemHB-3" value="&lt;span style=&quot;text-wrap: nowrap;&quot;&gt;+ Id: int&lt;/span&gt;" style="text;strokeColor=none;fillColor=none;align=left;verticalAlign=top;spacingLeft=4;spacingRight=4;overflow=hidden;rotatable=0;points=[[0,0.5],[1,0.5]];portConstraint=eastwest;whiteSpace=wrap;html=1;" vertex="1" parent="UMF_ZQlPhy-w_M4FemHB-2">
          <mxGeometry y="40" width="160" height="26" as="geometry" />
        </mxCell>
        <mxCell id="UMF_ZQlPhy-w_M4FemHB-7" value="&lt;span style=&quot;text-wrap: nowrap;&quot;&gt;+ Model: String&lt;/span&gt;" style="text;strokeColor=none;fillColor=none;align=left;verticalAlign=top;spacingLeft=4;spacingRight=4;overflow=hidden;rotatable=0;points=[[0,0.5],[1,0.5]];portConstraint=eastwest;whiteSpace=wrap;html=1;" vertex="1" parent="UMF_ZQlPhy-w_M4FemHB-2">
          <mxGeometry y="66" width="160" height="26" as="geometry" />
        </mxCell>
        <mxCell id="UMF_ZQlPhy-w_M4FemHB-8" value="&lt;span style=&quot;text-wrap: nowrap;&quot;&gt;+ Size: int&lt;/span&gt;" style="text;strokeColor=none;fillColor=none;align=left;verticalAlign=top;spacingLeft=4;spacingRight=4;overflow=hidden;rotatable=0;points=[[0,0.5],[1,0.5]];portConstraint=eastwest;whiteSpace=wrap;html=1;" vertex="1" parent="UMF_ZQlPhy-w_M4FemHB-2">
          <mxGeometry y="92" width="160" height="26" as="geometry" />
        </mxCell>
        <mxCell id="UMF_ZQlPhy-w_M4FemHB-25" value="&lt;span style=&quot;font-weight: 700;&quot;&gt;Truck&lt;/span&gt;" style="html=1;whiteSpace=wrap;" vertex="1" parent="1">
          <mxGeometry x="620" y="405" width="110" height="40" as="geometry" />
        </mxCell>
        <mxCell id="UMF_ZQlPhy-w_M4FemHB-26" value="&lt;span style=&quot;font-weight: 700;&quot;&gt;PassengerVehicle&lt;/span&gt;" style="html=1;whiteSpace=wrap;" vertex="1" parent="1">
          <mxGeometry x="440" y="400" width="110" height="50" as="geometry" />
        </mxCell>
        <mxCell id="UMF_ZQlPhy-w_M4FemHB-27" value="&lt;b&gt;ParkingImpl&lt;/b&gt;" style="swimlane;fontStyle=0;childLayout=stackLayout;horizontal=1;startSize=26;fillColor=none;horizontalStack=0;resizeParent=1;resizeParentMax=0;resizeLast=0;collapsible=1;marginBottom=0;whiteSpace=wrap;html=1;" vertex="1" parent="1">
          <mxGeometry x="62.5" y="350" width="285" height="76" as="geometry" />
        </mxCell>
        <mxCell id="UMF_ZQlPhy-w_M4FemHB-28" value="- smallVehiclePlaces: Map&amp;lt;int, Vehicle&amp;gt;" style="text;strokeColor=none;fillColor=none;align=left;verticalAlign=top;spacingLeft=4;spacingRight=4;overflow=hidden;rotatable=0;points=[[0,0.5],[1,0.5]];portConstraint=eastwest;whiteSpace=wrap;html=1;" vertex="1" parent="UMF_ZQlPhy-w_M4FemHB-27">
          <mxGeometry y="26" width="285" height="24" as="geometry" />
        </mxCell>
        <mxCell id="UMF_ZQlPhy-w_M4FemHB-29" value="- bigVehiclePlaces: Map&amp;lt;int, Vehicle&amp;gt;" style="text;strokeColor=none;fillColor=none;align=left;verticalAlign=top;spacingLeft=4;spacingRight=4;overflow=hidden;rotatable=0;points=[[0,0.5],[1,0.5]];portConstraint=eastwest;whiteSpace=wrap;html=1;" vertex="1" parent="UMF_ZQlPhy-w_M4FemHB-27">
          <mxGeometry y="50" width="285" height="26" as="geometry" />
        </mxCell>
        <mxCell id="UMF_ZQlPhy-w_M4FemHB-31" value="" style="endArrow=block;dashed=1;endFill=0;endSize=12;html=1;rounded=0;entryX=0.5;entryY=1;entryDx=0;entryDy=0;exitX=0.5;exitY=0;exitDx=0;exitDy=0;" edge="1" parent="1" source="UMF_ZQlPhy-w_M4FemHB-27" target="5d2195bd80daf111-18">
          <mxGeometry width="160" relative="1" as="geometry">
            <mxPoint x="380" y="380" as="sourcePoint" />
            <mxPoint x="540" y="380" as="targetPoint" />
          </mxGeometry>
        </mxCell>
        <mxCell id="UMF_ZQlPhy-w_M4FemHB-32" value="" style="endArrow=block;dashed=1;endFill=0;endSize=12;html=1;rounded=0;entryX=0.5;entryY=1;entryDx=0;entryDy=0;exitX=0.5;exitY=0;exitDx=0;exitDy=0;" edge="1" parent="1" source="UMF_ZQlPhy-w_M4FemHB-2" target="UMF_ZQlPhy-w_M4FemHB-1">
          <mxGeometry width="160" relative="1" as="geometry">
            <mxPoint x="440" y="250" as="sourcePoint" />
            <mxPoint x="440" y="210" as="targetPoint" />
          </mxGeometry>
        </mxCell>
        <mxCell id="UMF_ZQlPhy-w_M4FemHB-33" value="" style="endArrow=block;dashed=1;endFill=0;endSize=12;html=1;rounded=0;entryX=0.344;entryY=0.981;entryDx=0;entryDy=0;exitX=0.5;exitY=0;exitDx=0;exitDy=0;entryPerimeter=0;" edge="1" parent="1" source="UMF_ZQlPhy-w_M4FemHB-26" target="UMF_ZQlPhy-w_M4FemHB-8">
          <mxGeometry width="160" relative="1" as="geometry">
            <mxPoint x="400" y="398" as="sourcePoint" />
            <mxPoint x="400" y="358" as="targetPoint" />
          </mxGeometry>
        </mxCell>
        <mxCell id="UMF_ZQlPhy-w_M4FemHB-35" value="" style="endArrow=block;dashed=1;endFill=0;endSize=12;html=1;rounded=0;entryX=0.656;entryY=1.013;entryDx=0;entryDy=0;exitX=0.5;exitY=0;exitDx=0;exitDy=0;entryPerimeter=0;" edge="1" parent="1" source="UMF_ZQlPhy-w_M4FemHB-25" target="UMF_ZQlPhy-w_M4FemHB-8">
          <mxGeometry width="160" relative="1" as="geometry">
            <mxPoint x="557.5" y="482" as="sourcePoint" />
            <mxPoint x="632.5" y="440" as="targetPoint" />
          </mxGeometry>
        </mxCell>
        <mxCell id="UMF_ZQlPhy-w_M4FemHB-36" value="" style="endArrow=open;html=1;endSize=12;startArrow=diamondThin;startSize=14;startFill=0;edgeStyle=orthogonalEdgeStyle;align=left;verticalAlign=bottom;rounded=0;" edge="1" parent="1" source="5d2195bd80daf111-18">
          <mxGeometry x="-1" y="3" relative="1" as="geometry">
            <mxPoint x="300" y="171" as="sourcePoint" />
            <mxPoint x="540" y="190" as="targetPoint" />
          </mxGeometry>
        </mxCell>
      </root>
    </mxGraphModel>
  </diagram>
</mxfile>
